<svg id="visual" viewBox="0 0 2000 150" width="2000" height="150" xmlns="http://www.w3.org/2000/svg" xmlns:xlink="http://www.w3.org/1999/xlink" version="1.1"><path d="M0 69L37 64.7C74 60.3 148 51.7 222 51.5C296 51.3 370 59.7 444.2 58.8C518.3 58 592.7 48 666.8 42.5C741 37 815 36 889 39C963 42 1037 49 1111 54.5C1185 60 1259 64 1333.2 66.7C1407.3 69.3 1481.7 70.7 1555.8 70.2C1630 69.7 1704 67.3 1778 64C1852 60.7 1926 56.3 1963 54.2L2000 52L2000 151L1963 151C1926 151 1852 151 1778 151C1704 151 1630 151 1555.8 151C1481.7 151 1407.3 151 1333.2 151C1259 151 1185 151 1111 151C1037 151 963 151 889 151C815 151 741 151 666.8 151C592.7 151 518.3 151 444.2 151C370 151 296 151 222 151C148 151 74 151 37 151L0 151Z" fill="#ffffff"></path><path d="M0 57L37 58.5C74 60 148 63 222 66.7C296 70.3 370 74.7 444.2 75.7C518.3 76.7 592.7 74.3 666.8 73.7C741 73 815 74 889 76.8C963 79.7 1037 84.3 1111 86.3C1185 88.3 1259 87.7 1333.2 83.5C1407.3 79.3 1481.7 71.7 1555.8 67.5C1630 63.3 1704 62.7 1778 65.3C1852 68 1926 74 1963 77L2000 80L2000 151L1963 151C1926 151 1852 151 1778 151C1704 151 1630 151 1555.8 151C1481.7 151 1407.3 151 1333.2 151C1259 151 1185 151 1111 151C1037 151 963 151 889 151C815 151 741 151 666.8 151C592.7 151 518.3 151 444.2 151C370 151 296 151 222 151C148 151 74 151 37 151L0 151Z" fill="#cdb9ff"></path><path d="M0 99L37 95.8C74 92.7 148 86.3 222 86.7C296 87 370 94 444.2 94.3C518.3 94.7 592.7 88.3 666.8 90.7C741 93 815 104 889 106.7C963 109.3 1037 103.7 1111 97.8C1185 92 1259 86 1333.2 84C1407.3 82 1481.7 84 1555.8 86.2C1630 88.3 1704 90.7 1778 93.5C1852 96.3 1926 99.7 1963 101.3L2000 103L2000 151L1963 151C1926 151 1852 151 1778 151C1704 151 1630 151 1555.8 151C1481.7 151 1407.3 151 1333.2 151C1259 151 1185 151 1111 151C1037 151 963 151 889 151C815 151 741 151 666.8 151C592.7 151 518.3 151 444.2 151C370 151 296 151 222 151C148 151 74 151 37 151L0 151Z" fill="#8f76ff"></path><path d="M0 126L37 125.8C74 125.7 148 125.3 222 122.7C296 120 370 115 444.2 116.3C518.3 117.7 592.7 125.3 666.8 128.7C741 132 815 131 889 130.7C963 130.3 1037 130.7 1111 126.3C1185 122 1259 113 1333.2 111.7C1407.3 110.3 1481.7 116.7 1555.8 118.8C1630 121 1704 119 1778 119.2C1852 119.3 1926 121.7 1963 122.8L2000 124L2000 151L1963 151C1926 151 1852 151 1778 151C1704 151 1630 151 1555.8 151C1481.7 151 1407.3 151 1333.2 151C1259 151 1185 151 1111 151C1037 151 963 151 889 151C815 151 741 151 666.8 151C592.7 151 518.3 151 444.2 151C370 151 296 151 222 151C148 151 74 151 37 151L0 151Z" fill="#0033ff"></path></svg>