<svg id="visual" viewBox="0 0 2000 200" width="2000" height="200" xmlns="http://www.w3.org/2000/svg" xmlns:xlink="http://www.w3.org/1999/xlink" version="1.1"><path d="M0 108L41.7 102.2C83.3 96.3 166.7 84.7 250 78.8C333.3 73 416.7 73 500 74C583.3 75 666.7 77 750 81.2C833.3 85.3 916.7 91.7 1000 94C1083.3 96.3 1166.7 94.7 1250 96.7C1333.3 98.7 1416.7 104.3 1500 106C1583.3 107.7 1666.7 105.3 1750 103C1833.3 100.7 1916.7 98.3 1958.3 97.2L2000 96L2000 201L1958.3 201C1916.7 201 1833.3 201 1750 201C1666.7 201 1583.3 201 1500 201C1416.7 201 1333.3 201 1250 201C1166.7 201 1083.3 201 1000 201C916.7 201 833.3 201 750 201C666.7 201 583.3 201 500 201C416.7 201 333.3 201 250 201C166.7 201 83.3 201 41.7 201L0 201Z" fill="#ffffff"></path><path d="M0 98L41.7 101.2C83.3 104.3 166.7 110.7 250 113.8C333.3 117 416.7 117 500 116C583.3 115 666.7 113 750 115.5C833.3 118 916.7 125 1000 128.2C1083.3 131.3 1166.7 130.7 1250 131C1333.3 131.3 1416.7 132.7 1500 132.3C1583.3 132 1666.7 130 1750 124.7C1833.3 119.3 1916.7 110.7 1958.3 106.3L2000 102L2000 201L1958.3 201C1916.7 201 1833.3 201 1750 201C1666.7 201 1583.3 201 1500 201C1416.7 201 1333.3 201 1250 201C1166.7 201 1083.3 201 1000 201C916.7 201 833.3 201 750 201C666.7 201 583.3 201 500 201C416.7 201 333.3 201 250 201C166.7 201 83.3 201 41.7 201L0 201Z" fill="#cdb9ff"></path><path d="M0 130L41.7 133.3C83.3 136.7 166.7 143.3 250 147.2C333.3 151 416.7 152 500 148.5C583.3 145 666.7 137 750 134.5C833.3 132 916.7 135 1000 139.5C1083.3 144 1166.7 150 1250 147.8C1333.3 145.7 1416.7 135.3 1500 132.3C1583.3 129.3 1666.7 133.7 1750 138.5C1833.3 143.3 1916.7 148.7 1958.3 151.3L2000 154L2000 201L1958.3 201C1916.7 201 1833.3 201 1750 201C1666.7 201 1583.3 201 1500 201C1416.7 201 1333.3 201 1250 201C1166.7 201 1083.3 201 1000 201C916.7 201 833.3 201 750 201C666.7 201 583.3 201 500 201C416.7 201 333.3 201 250 201C166.7 201 83.3 201 41.7 201L0 201Z" fill="#8f76ff"></path><path d="M0 167L41.7 165.2C83.3 163.3 166.7 159.7 250 157.5C333.3 155.3 416.7 154.7 500 154.7C583.3 154.7 666.7 155.3 750 157.8C833.3 160.3 916.7 164.7 1000 164.7C1083.3 164.7 1166.7 160.3 1250 157.5C1333.3 154.7 1416.7 153.3 1500 157.5C1583.3 161.7 1666.7 171.3 1750 175C1833.3 178.7 1916.7 176.3 1958.3 175.2L2000 174L2000 201L1958.3 201C1916.7 201 1833.3 201 1750 201C1666.7 201 1583.3 201 1500 201C1416.7 201 1333.3 201 1250 201C1166.7 201 1083.3 201 1000 201C916.7 201 833.3 201 750 201C666.7 201 583.3 201 500 201C416.7 201 333.3 201 250 201C166.7 201 83.3 201 41.7 201L0 201Z" fill="#0033ff"></path></svg>