<svg id="visual" viewBox="0 0 2000 150" width="2000" height="150" xmlns="http://www.w3.org/2000/svg" xmlns:xlink="http://www.w3.org/1999/xlink" version="1.1"><path d="M0 51L55.5 56C111 61 222 71 333.2 73.2C444.3 75.3 555.7 69.7 666.8 67C778 64.3 889 64.7 1000 63.2C1111 61.7 1222 58.3 1333.2 58.8C1444.3 59.3 1555.7 63.7 1666.8 68.7C1778 73.7 1889 79.3 1944.5 82.2L2000 85L2000 151L1944.5 151C1889 151 1778 151 1666.8 151C1555.7 151 1444.3 151 1333.2 151C1222 151 1111 151 1000 151C889 151 778 151 666.8 151C555.7 151 444.3 151 333.2 151C222 151 111 151 55.5 151L0 151Z" fill="#ffffff"></path><path d="M0 86L55.5 88.2C111 90.3 222 94.7 333.2 93.2C444.3 91.7 555.7 84.3 666.8 83.5C778 82.7 889 88.3 1000 92.7C1111 97 1222 100 1333.2 97.8C1444.3 95.7 1555.7 88.3 1666.8 83.7C1778 79 1889 77 1944.5 76L2000 75L2000 151L1944.5 151C1889 151 1778 151 1666.8 151C1555.7 151 1444.3 151 1333.2 151C1222 151 1111 151 1000 151C889 151 778 151 666.8 151C555.7 151 444.3 151 333.2 151C222 151 111 151 55.5 151L0 151Z" fill="#cdb9ff"></path><path d="M0 122L55.5 118C111 114 222 106 333.2 106C444.3 106 555.7 114 666.8 116.7C778 119.3 889 116.7 1000 114.3C1111 112 1222 110 1333.2 107.2C1444.3 104.3 1555.7 100.7 1666.8 101.8C1778 103 1889 109 1944.5 112L2000 115L2000 151L1944.5 151C1889 151 1778 151 1666.8 151C1555.7 151 1444.3 151 1333.2 151C1222 151 1111 151 1000 151C889 151 778 151 666.8 151C555.7 151 444.3 151 333.2 151C222 151 111 151 55.5 151L0 151Z" fill="#8f76ff"></path><path d="M0 121L55.5 123.8C111 126.7 222 132.3 333.2 134.3C444.3 136.3 555.7 134.7 666.8 133C778 131.3 889 129.7 1000 126C1111 122.3 1222 116.7 1333.2 118.5C1444.3 120.3 1555.7 129.7 1666.8 132.7C1778 135.7 1889 132.3 1944.5 130.7L2000 129L2000 151L1944.5 151C1889 151 1778 151 1666.8 151C1555.7 151 1444.3 151 1333.2 151C1222 151 1111 151 1000 151C889 151 778 151 666.8 151C555.7 151 444.3 151 333.2 151C222 151 111 151 55.5 151L0 151Z" fill="#0033ff"></path></svg>