<svg id="visual" viewBox="0 0 2000 200" width="2000" height="200" xmlns="http://www.w3.org/2000/svg" xmlns:xlink="http://www.w3.org/1999/xlink" version="1.1"><rect x="0" y="0" width="2000" height="200" fill="#cdb9ff"></rect><path d="M0 122L41.7 120.2C83.3 118.3 166.7 114.7 250 114.8C333.3 115 416.7 119 500 123.8C583.3 128.7 666.7 134.3 750 129.3C833.3 124.3 916.7 108.7 1000 108.2C1083.3 107.7 1166.7 122.3 1250 129C1333.3 135.7 1416.7 134.3 1500 129.3C1583.3 124.3 1666.7 115.7 1750 112.5C1833.3 109.3 1916.7 111.7 1958.3 112.8L2000 114L2000 0L1958.3 0C1916.7 0 1833.3 0 1750 0C1666.7 0 1583.3 0 1500 0C1416.7 0 1333.3 0 1250 0C1166.7 0 1083.3 0 1000 0C916.7 0 833.3 0 750 0C666.7 0 583.3 0 500 0C416.7 0 333.3 0 250 0C166.7 0 83.3 0 41.7 0L0 0Z" fill="#cdb9ff"></path><path d="M0 108L41.7 102.3C83.3 96.7 166.7 85.3 250 83.2C333.3 81 416.7 88 500 95.7C583.3 103.3 666.7 111.7 750 114.7C833.3 117.7 916.7 115.3 1000 108.7C1083.3 102 1166.7 91 1250 90.3C1333.3 89.7 1416.7 99.3 1500 104C1583.3 108.7 1666.7 108.3 1750 106.7C1833.3 105 1916.7 102 1958.3 100.5L2000 99L2000 0L1958.3 0C1916.7 0 1833.3 0 1750 0C1666.7 0 1583.3 0 1500 0C1416.7 0 1333.3 0 1250 0C1166.7 0 1083.3 0 1000 0C916.7 0 833.3 0 750 0C666.7 0 583.3 0 500 0C416.7 0 333.3 0 250 0C166.7 0 83.3 0 41.7 0L0 0Z" fill="#a68bff"></path><path d="M0 59L41.7 58.8C83.3 58.7 166.7 58.3 250 58.3C333.3 58.3 416.7 58.7 500 61.7C583.3 64.7 666.7 70.3 750 67.7C833.3 65 916.7 54 1000 56.7C1083.3 59.3 1166.7 75.7 1250 79.3C1333.3 83 1416.7 74 1500 72.2C1583.3 70.3 1666.7 75.7 1750 79.3C1833.3 83 1916.7 85 1958.3 86L2000 87L2000 0L1958.3 0C1916.7 0 1833.3 0 1750 0C1666.7 0 1583.3 0 1500 0C1416.7 0 1333.3 0 1250 0C1166.7 0 1083.3 0 1000 0C916.7 0 833.3 0 750 0C666.7 0 583.3 0 500 0C416.7 0 333.3 0 250 0C166.7 0 83.3 0 41.7 0L0 0Z" fill="#765fff"></path><path d="M0 44L41.7 40.5C83.3 37 166.7 30 250 30.7C333.3 31.3 416.7 39.7 500 42.7C583.3 45.7 666.7 43.3 750 43.8C833.3 44.3 916.7 47.7 1000 44C1083.3 40.3 1166.7 29.7 1250 28.8C1333.3 28 1416.7 37 1500 42.3C1583.3 47.7 1666.7 49.3 1750 46.8C1833.3 44.3 1916.7 37.7 1958.3 34.3L2000 31L2000 0L1958.3 0C1916.7 0 1833.3 0 1750 0C1666.7 0 1583.3 0 1500 0C1416.7 0 1333.3 0 1250 0C1166.7 0 1083.3 0 1000 0C916.7 0 833.3 0 750 0C666.7 0 583.3 0 500 0C416.7 0 333.3 0 250 0C166.7 0 83.3 0 41.7 0L0 0Z" fill="#0033ff"></path></svg>