<svg id="visual" viewBox="0 0 500 20" width="500" height="20" xmlns="http://www.w3.org/2000/svg" xmlns:xlink="http://www.w3.org/1999/xlink" version="1.1"><rect x="0" y="0" width="500" height="20" fill="#ffffff"></rect><path d="M0 14L11.8 13.2C23.7 12.3 47.3 10.7 71.2 10.7C95 10.7 119 12.3 142.8 13.2C166.7 14 190.3 14 214.2 13.5C238 13 262 12 285.8 12C309.7 12 333.3 13 357.2 12.8C381 12.7 405 11.3 428.8 11.2C452.7 11 476.3 12 488.2 12.5L500 13L500 0L488.2 0C476.3 0 452.7 0 428.8 0C405 0 381 0 357.2 0C333.3 0 309.7 0 285.8 0C262 0 238 0 214.2 0C190.3 0 166.7 0 142.8 0C119 0 95 0 71.2 0C47.3 0 23.7 0 11.8 0L0 0Z" fill="#cdb9ff"></path><path d="M0 5L11.8 5.7C23.7 6.3 47.3 7.7 71.2 7.8C95 8 119 7 142.8 7.3C166.7 7.7 190.3 9.3 214.2 9.8C238 10.3 262 9.7 285.8 9.2C309.7 8.7 333.3 8.3 357.2 8C381 7.7 405 7.3 428.8 7.7C452.7 8 476.3 9 488.2 9.5L500 10L500 0L488.2 0C476.3 0 452.7 0 428.8 0C405 0 381 0 357.2 0C333.3 0 309.7 0 285.8 0C262 0 238 0 214.2 0C190.3 0 166.7 0 142.8 0C119 0 95 0 71.2 0C47.3 0 23.7 0 11.8 0L0 0Z" fill="#9075ff"></path><path d="M0 4L11.8 4.3C23.7 4.7 47.3 5.3 71.2 5.3C95 5.3 119 4.7 142.8 4.7C166.7 4.7 190.3 5.3 214.2 5.2C238 5 262 4 285.8 4C309.7 4 333.3 5 357.2 5.5C381 6 405 6 428.8 5.5C452.7 5 476.3 4 488.2 3.5L500 3L500 0L488.2 0C476.3 0 452.7 0 428.8 0C405 0 381 0 357.2 0C333.3 0 309.7 0 285.8 0C262 0 238 0 214.2 0C190.3 0 166.7 0 142.8 0C119 0 95 0 71.2 0C47.3 0 23.7 0 11.8 0L0 0Z" fill="#0033ff"></path></svg>