<svg id="visual" viewBox="0 0 500 20" width="500" height="20" xmlns="http://www.w3.org/2000/svg" xmlns:xlink="http://www.w3.org/1999/xlink" version="1.1"><rect x="0" y="0" width="500" height="20" fill="#ffffff"></rect><path d="M0 9L11.8 8.3C23.7 7.7 47.3 6.3 71.2 6C95 5.7 119 6.3 142.8 6.5C166.7 6.7 190.3 6.3 214.2 6.2C238 6 262 6 285.8 6.7C309.7 7.3 333.3 8.7 357.2 9.2C381 9.7 405 9.3 428.8 9C452.7 8.7 476.3 8.3 488.2 8.2L500 8L500 21L488.2 21C476.3 21 452.7 21 428.8 21C405 21 381 21 357.2 21C333.3 21 309.7 21 285.8 21C262 21 238 21 214.2 21C190.3 21 166.7 21 142.8 21C119 21 95 21 71.2 21C47.3 21 23.7 21 11.8 21L0 21Z" fill="#cdb9ff"></path><path d="M0 12L11.8 11.3C23.7 10.7 47.3 9.3 71.2 9C95 8.7 119 9.3 142.8 10.2C166.7 11 190.3 12 214.2 12C238 12 262 11 285.8 10C309.7 9 333.3 8 357.2 8.3C381 8.7 405 10.3 428.8 11.2C452.7 12 476.3 12 488.2 12L500 12L500 21L488.2 21C476.3 21 452.7 21 428.8 21C405 21 381 21 357.2 21C333.3 21 309.7 21 285.8 21C262 21 238 21 214.2 21C190.3 21 166.7 21 142.8 21C119 21 95 21 71.2 21C47.3 21 23.7 21 11.8 21L0 21Z" fill="#9075ff"></path><path d="M0 16L11.8 15.5C23.7 15 47.3 14 71.2 14C95 14 119 15 142.8 15.5C166.7 16 190.3 16 214.2 16C238 16 262 16 285.8 15.8C309.7 15.7 333.3 15.3 357.2 15.3C381 15.3 405 15.7 428.8 15.7C452.7 15.7 476.3 15.3 488.2 15.2L500 15L500 21L488.2 21C476.3 21 452.7 21 428.8 21C405 21 381 21 357.2 21C333.3 21 309.7 21 285.8 21C262 21 238 21 214.2 21C190.3 21 166.7 21 142.8 21C119 21 95 21 71.2 21C47.3 21 23.7 21 11.8 21L0 21Z" fill="#0033ff"></path></svg>