<svg id="visual" viewBox="0 0 2000 200" width="2000" height="200" xmlns="http://www.w3.org/2000/svg" xmlns:xlink="http://www.w3.org/1999/xlink" version="1.1"><path d="M0 91L41.7 93.7C83.3 96.3 166.7 101.7 250 106.7C333.3 111.7 416.7 116.3 500 115.2C583.3 114 666.7 107 750 103C833.3 99 916.7 98 1000 96.2C1083.3 94.3 1166.7 91.7 1250 89.2C1333.3 86.7 1416.7 84.3 1500 88.5C1583.3 92.7 1666.7 103.3 1750 103.8C1833.3 104.3 1916.7 94.7 1958.3 89.8L2000 85L2000 0L1958.3 0C1916.7 0 1833.3 0 1750 0C1666.7 0 1583.3 0 1500 0C1416.7 0 1333.3 0 1250 0C1166.7 0 1083.3 0 1000 0C916.7 0 833.3 0 750 0C666.7 0 583.3 0 500 0C416.7 0 333.3 0 250 0C166.7 0 83.3 0 41.7 0L0 0Z" fill="#ffffff"></path><path d="M0 80L41.7 80.2C83.3 80.3 166.7 80.7 250 82.7C333.3 84.7 416.7 88.3 500 86.3C583.3 84.3 666.7 76.7 750 70.8C833.3 65 916.7 61 1000 65.8C1083.3 70.7 1166.7 84.3 1250 88.7C1333.3 93 1416.7 88 1500 87C1583.3 86 1666.7 89 1750 87.5C1833.3 86 1916.7 80 1958.3 77L2000 74L2000 0L1958.3 0C1916.7 0 1833.3 0 1750 0C1666.7 0 1583.3 0 1500 0C1416.7 0 1333.3 0 1250 0C1166.7 0 1083.3 0 1000 0C916.7 0 833.3 0 750 0C666.7 0 583.3 0 500 0C416.7 0 333.3 0 250 0C166.7 0 83.3 0 41.7 0L0 0Z" fill="#cdb9ff"></path><path d="M0 35L41.7 37.3C83.3 39.7 166.7 44.3 250 47.5C333.3 50.7 416.7 52.3 500 52C583.3 51.7 666.7 49.3 750 49.7C833.3 50 916.7 53 1000 56.3C1083.3 59.7 1166.7 63.3 1250 63C1333.3 62.7 1416.7 58.3 1500 58.5C1583.3 58.7 1666.7 63.3 1750 66.5C1833.3 69.7 1916.7 71.3 1958.3 72.2L2000 73L2000 0L1958.3 0C1916.7 0 1833.3 0 1750 0C1666.7 0 1583.3 0 1500 0C1416.7 0 1333.3 0 1250 0C1166.7 0 1083.3 0 1000 0C916.7 0 833.3 0 750 0C666.7 0 583.3 0 500 0C416.7 0 333.3 0 250 0C166.7 0 83.3 0 41.7 0L0 0Z" fill="#8f76ff"></path><path d="M0 39L41.7 35.3C83.3 31.7 166.7 24.3 250 20.3C333.3 16.3 416.7 15.7 500 20.2C583.3 24.7 666.7 34.3 750 34.7C833.3 35 916.7 26 1000 24C1083.3 22 1166.7 27 1250 31C1333.3 35 1416.7 38 1500 37.3C1583.3 36.7 1666.7 32.3 1750 31.5C1833.3 30.7 1916.7 33.3 1958.3 34.7L2000 36L2000 0L1958.3 0C1916.7 0 1833.3 0 1750 0C1666.7 0 1583.3 0 1500 0C1416.7 0 1333.3 0 1250 0C1166.7 0 1083.3 0 1000 0C916.7 0 833.3 0 750 0C666.7 0 583.3 0 500 0C416.7 0 333.3 0 250 0C166.7 0 83.3 0 41.7 0L0 0Z" fill="#0033ff"></path></svg>