<svg id="visual" viewBox="0 0 2000 150" width="2000" height="150" xmlns="http://www.w3.org/2000/svg" xmlns:xlink="http://www.w3.org/1999/xlink" version="1.1"><path d="M0 97L55.5 92C111 87 222 77 333.2 74.8C444.3 72.7 555.7 78.3 666.8 81C778 83.7 889 83.3 1000 84.8C1111 86.3 1222 89.7 1333.2 89.2C1444.3 88.7 1555.7 84.3 1666.8 79.3C1778 74.3 1889 68.7 1944.5 65.8L2000 63L2000 0L1944.5 0C1889 0 1778 0 1666.8 0C1555.7 0 1444.3 0 1333.2 0C1222 0 1111 0 1000 0C889 0 778 0 666.8 0C555.7 0 444.3 0 333.2 0C222 0 111 0 55.5 0L0 0Z" fill="#0033ff"></path><path d="M0 62L55.5 59.8C111 57.7 222 53.3 333.2 54.8C444.3 56.3 555.7 63.7 666.8 64.5C778 65.3 889 59.7 1000 55.3C1111 51 1222 48 1333.2 50.2C1444.3 52.3 1555.7 59.7 1666.8 64.3C1778 69 1889 71 1944.5 72L2000 73L2000 0L1944.5 0C1889 0 1778 0 1666.8 0C1555.7 0 1444.3 0 1333.2 0C1222 0 1111 0 1000 0C889 0 778 0 666.8 0C555.7 0 444.3 0 333.2 0C222 0 111 0 55.5 0L0 0Z" fill="#8f76ff"></path><path d="M0 26L55.5 30C111 34 222 42 333.2 42C444.3 42 555.7 34 666.8 31.3C778 28.7 889 31.3 1000 33.7C1111 36 1222 38 1333.2 40.8C1444.3 43.7 1555.7 47.3 1666.8 46.2C1778 45 1889 39 1944.5 36L2000 33L2000 0L1944.5 0C1889 0 1778 0 1666.8 0C1555.7 0 1444.3 0 1333.2 0C1222 0 1111 0 1000 0C889 0 778 0 666.8 0C555.7 0 444.3 0 333.2 0C222 0 111 0 55.5 0L0 0Z" fill="#cdb9ff"></path><path d="M0 27L55.5 24.2C111 21.3 222 15.7 333.2 13.7C444.3 11.7 555.7 13.3 666.8 15C778 16.7 889 18.3 1000 22C1111 25.7 1222 31.3 1333.2 29.5C1444.3 27.7 1555.7 18.3 1666.8 15.3C1778 12.3 1889 15.7 1944.5 17.3L2000 19L2000 0L1944.5 0C1889 0 1778 0 1666.8 0C1555.7 0 1444.3 0 1333.2 0C1222 0 1111 0 1000 0C889 0 778 0 666.8 0C555.7 0 444.3 0 333.2 0C222 0 111 0 55.5 0L0 0Z" fill="#ffffff"></path></svg>