<svg id="visual" viewBox="0 0 2800 100" width="2800" height="100" xmlns="http://www.w3.org/2000/svg" xmlns:xlink="http://www.w3.org/1999/xlink" version="1.1"><path d="M0 39L66.7 38.3C133.3 37.7 266.7 36.3 400 35C533.3 33.7 666.7 32.3 800 30.3C933.3 28.3 1066.7 25.7 1200 26.8C1333.3 28 1466.7 33 1600 37.3C1733.3 41.7 1866.7 45.3 2000 45.5C2133.3 45.7 2266.7 42.3 2400 38.3C2533.3 34.3 2666.7 29.7 2733.3 27.3L2800 25L2800 101L2733.3 101C2666.7 101 2533.3 101 2400 101C2266.7 101 2133.3 101 2000 101C1866.7 101 1733.3 101 1600 101C1466.7 101 1333.3 101 1200 101C1066.7 101 933.3 101 800 101C666.7 101 533.3 101 400 101C266.7 101 133.3 101 66.7 101L0 101Z" fill="#ffffff"></path><path d="M0 50L66.7 49.2C133.3 48.3 266.7 46.7 400 45.7C533.3 44.7 666.7 44.3 800 46.8C933.3 49.3 1066.7 54.7 1200 54C1333.3 53.3 1466.7 46.7 1600 44.7C1733.3 42.7 1866.7 45.3 2000 49C2133.3 52.7 2266.7 57.3 2400 58.3C2533.3 59.3 2666.7 56.7 2733.3 55.3L2800 54L2800 101L2733.3 101C2666.7 101 2533.3 101 2400 101C2266.7 101 2133.3 101 2000 101C1866.7 101 1733.3 101 1600 101C1466.7 101 1333.3 101 1200 101C1066.7 101 933.3 101 800 101C666.7 101 533.3 101 400 101C266.7 101 133.3 101 66.7 101L0 101Z" fill="#cdb9ff"></path><path d="M0 75L66.7 73C133.3 71 266.7 67 400 66.5C533.3 66 666.7 69 800 69.3C933.3 69.7 1066.7 67.3 1200 67.7C1333.3 68 1466.7 71 1600 69.5C1733.3 68 1866.7 62 2000 59C2133.3 56 2266.7 56 2400 58.5C2533.3 61 2666.7 66 2733.3 68.5L2800 71L2800 101L2733.3 101C2666.7 101 2533.3 101 2400 101C2266.7 101 2133.3 101 2000 101C1866.7 101 1733.3 101 1600 101C1466.7 101 1333.3 101 1200 101C1066.7 101 933.3 101 800 101C666.7 101 533.3 101 400 101C266.7 101 133.3 101 66.7 101L0 101Z" fill="#8f76ff"></path><path d="M0 74L66.7 74.2C133.3 74.3 266.7 74.7 400 75.2C533.3 75.7 666.7 76.3 800 78.3C933.3 80.3 1066.7 83.7 1200 84.8C1333.3 86 1466.7 85 1600 84.3C1733.3 83.7 1866.7 83.3 2000 83.3C2133.3 83.3 2266.7 83.7 2400 83.8C2533.3 84 2666.7 84 2733.3 84L2800 84L2800 101L2733.3 101C2666.7 101 2533.3 101 2400 101C2266.7 101 2133.3 101 2000 101C1866.7 101 1733.3 101 1600 101C1466.7 101 1333.3 101 1200 101C1066.7 101 933.3 101 800 101C666.7 101 533.3 101 400 101C266.7 101 133.3 101 66.7 101L0 101Z" fill="#0033ff"></path></svg>