<svg id="visual" viewBox="0 0 2000 150" width="2000" height="150" xmlns="http://www.w3.org/2000/svg" xmlns:xlink="http://www.w3.org/1999/xlink" version="1.1"><path d="M0 79L37 83C74 87 148 95 222 99.2C296 103.3 370 103.7 444.2 102.5C518.3 101.3 592.7 98.7 666.8 98.8C741 99 815 102 889 101.5C963 101 1037 97 1111 93.3C1185 89.7 1259 86.3 1333.2 83C1407.3 79.7 1481.7 76.3 1555.8 79C1630 81.7 1704 90.3 1778 93.7C1852 97 1926 95 1963 94L2000 93L2000 0L1963 0C1926 0 1852 0 1778 0C1704 0 1630 0 1555.8 0C1481.7 0 1407.3 0 1333.2 0C1259 0 1185 0 1111 0C1037 0 963 0 889 0C815 0 741 0 666.8 0C592.7 0 518.3 0 444.2 0C370 0 296 0 222 0C148 0 74 0 37 0L0 0Z" fill="#ffffff"></path><path d="M0 86L37 86.8C74 87.7 148 89.3 222 84C296 78.7 370 66.3 444.2 64.7C518.3 63 592.7 72 666.8 76.7C741 81.3 815 81.7 889 84.2C963 86.7 1037 91.3 1111 87.8C1185 84.3 1259 72.7 1333.2 68.7C1407.3 64.7 1481.7 68.3 1555.8 71C1630 73.7 1704 75.3 1778 75C1852 74.7 1926 72.3 1963 71.2L2000 70L2000 0L1963 0C1926 0 1852 0 1778 0C1704 0 1630 0 1555.8 0C1481.7 0 1407.3 0 1333.2 0C1259 0 1185 0 1111 0C1037 0 963 0 889 0C815 0 741 0 666.8 0C592.7 0 518.3 0 444.2 0C370 0 296 0 222 0C148 0 74 0 37 0L0 0Z" fill="#cdb9ff"></path><path d="M0 34L37 38.2C74 42.3 148 50.7 222 51.2C296 51.7 370 44.3 444.2 45C518.3 45.7 592.7 54.3 666.8 57.5C741 60.7 815 58.3 889 54.2C963 50 1037 44 1111 40.8C1185 37.7 1259 37.3 1333.2 36.7C1407.3 36 1481.7 35 1555.8 39.7C1630 44.3 1704 54.7 1778 58.5C1852 62.3 1926 59.7 1963 58.3L2000 57L2000 0L1963 0C1926 0 1852 0 1778 0C1704 0 1630 0 1555.8 0C1481.7 0 1407.3 0 1333.2 0C1259 0 1185 0 1111 0C1037 0 963 0 889 0C815 0 741 0 666.8 0C592.7 0 518.3 0 444.2 0C370 0 296 0 222 0C148 0 74 0 37 0L0 0Z" fill="#8f76ff"></path><path d="M0 23L37 24.5C74 26 148 29 222 31C296 33 370 34 444.2 34.7C518.3 35.3 592.7 35.7 666.8 33.8C741 32 815 28 889 26C963 24 1037 24 1111 24.5C1185 25 1259 26 1333.2 25.7C1407.3 25.3 1481.7 23.7 1555.8 23.8C1630 24 1704 26 1778 24.7C1852 23.3 1926 18.7 1963 16.3L2000 14L2000 0L1963 0C1926 0 1852 0 1778 0C1704 0 1630 0 1555.8 0C1481.7 0 1407.3 0 1333.2 0C1259 0 1185 0 1111 0C1037 0 963 0 889 0C815 0 741 0 666.8 0C592.7 0 518.3 0 444.2 0C370 0 296 0 222 0C148 0 74 0 37 0L0 0Z" fill="#0033ff"></path></svg>